<svg xmlns="http://www.w3.org/2000/svg" width="60" height="60" fill="none"><g stroke-linecap="round" stroke-linejoin="round" stroke-width="3.75" clip-path="url(#a)"><path stroke="#585E76" d="M26.25 58.133H5.625a3.75 3.75 0 0 1-3.75-3.75V5.633a3.75 3.75 0 0 1 3.75-3.75h26.572a3.75 3.75 0 0 1 2.653 1.1L49.528 17.66a3.75 3.75 0 0 1 1.097 2.652v11.57"/><path stroke="#008A27" d="M50.625 20.633h-15a3.75 3.75 0 0 1-3.75-3.75v-15"/><path stroke="#1672EB" d="M43.125 39.383v15a3.75 3.75 0 0 1-3.75 3.75h-3.75m22.5-18.75h-3.75a3.75 3.75 0 0 0-3.75 3.75c0 5.624 7.5 5.624 7.5 11.25a3.75 3.75 0 0 1-3.75 3.75h-3.75"/></g><defs><clipPath id="a"><path fill="#fff" d="M0 0h60v60H0z"/></clipPath></defs></svg>